<?xml version="1.0" encoding="UTF-8" standalone="no"?>
<svg
   version="1.1"
   viewBox="0.0 0.0 101.11286089238845 100.0"
   fill="none"
   stroke="none"
   stroke-linecap="square"
   stroke-miterlimit="10"
   id="svg21"
   sodipodi:docname="enemy.svg"
   inkscape:export-filename="/home/irina/Documents/LD/comfort/Assets/svg_sources/enemy.png"
   inkscape:export-xdpi="200.3306"
   inkscape:export-ydpi="200.3306"
   inkscape:version="1.1.2 (0a00cf5339, 2022-02-04)"
   xmlns:inkscape="http://www.inkscape.org/namespaces/inkscape"
   xmlns:sodipodi="http://sodipodi.sourceforge.net/DTD/sodipodi-0.dtd"
   xmlns="http://www.w3.org/2000/svg"
   xmlns:svg="http://www.w3.org/2000/svg">
  <defs
     id="defs25" />
  <sodipodi:namedview
     id="namedview23"
     pagecolor="#ffffff"
     bordercolor="#666666"
     borderopacity="1.0"
     inkscape:pageshadow="2"
     inkscape:pageopacity="0.0"
     inkscape:pagecheckerboard="0"
     showgrid="false"
     inkscape:zoom="4.22"
     inkscape:cx="30.687204"
     inkscape:cy="65.758294"
     inkscape:window-width="1850"
     inkscape:window-height="1016"
     inkscape:window-x="70"
     inkscape:window-y="27"
     inkscape:window-maximized="1"
     inkscape:current-layer="svg21" />
  <clipPath
     id="p.0">
    <path
       d="m0 0l101.11286 0l0 100.0l-101.11286 0l0 -100.0z"
       clip-rule="nonzero"
       id="path2" />
  </clipPath>
  <g
     clip-path="url(#p.0)"
     id="g19"
     transform="matrix(1.0455384,0,0,1.0085763,-3.732558,-0.22751505)">
    <path
       fill="#000000"
       fill-opacity="0"
       d="M 0,0 H 101.11286 V 100 H 0 Z"
       fill-rule="evenodd"
       id="path5" />
    <path
       fill="#000000"
       d="M 54.688563,20.493539 63.378779,8.9874108 68.115114,27.096046 83.378336,15.110311 76.246439,30.569839 93.529901,23.868158 78.898439,43.774852 98.487915,55.648742 76.246439,57.154705 95.118481,82.269592 68.619211,66.540848 69.943018,80.436018 57.83589,73.833508 58.929998,98.85833 47.718851,80.436018 42.58143,91.211678 37.439627,83.909818 27.785865,95.095357 25.507837,84.438938 10.078043,82.529498 19.042227,71.233918 11.77704,60.832757 21.694223,53.851151 5.2963345,44.146297 27.993261,36.482189 13.23291,16.345835 41.923914,29.879681 34.305416,1.2207281 Z"
       fill-rule="evenodd"
       id="path7"
       sodipodi:nodetypes="ccccccccccccccccccccccccccccc" />
    <path
       fill="#ffffff"
       d="m 36.83727,39.8084 v 0 c 0,-3.757275 3.123432,-6.80315 6.976379,-6.80315 v 0 c 1.850251,0 3.624718,0.716759 4.933045,1.992596 1.308323,1.27584 2.043335,3.006248 2.043335,4.810554 v 0 c 0,3.757275 -3.123432,6.80315 -6.97638,6.80315 v 0 c -3.852947,0 -6.976379,-3.045875 -6.976379,-6.80315 z"
       fill-rule="evenodd"
       id="path11" />
    <path
       stroke="#000000"
       stroke-width="1"
       stroke-linejoin="round"
       stroke-linecap="butt"
       d="m 36.83727,39.8084 v 0 c 0,-3.757275 3.123432,-6.80315 6.976379,-6.80315 v 0 c 1.850251,0 3.624718,0.716759 4.933045,1.992596 1.308323,1.27584 2.043335,3.006248 2.043335,4.810554 v 0 c 0,3.757275 -3.123432,6.80315 -6.97638,6.80315 v 0 c -3.852947,0 -6.976379,-3.045875 -6.976379,-6.80315 z"
       fill-rule="evenodd"
       id="path13" />
    <path
       fill="#ffffff"
       d="m 55.559055,39.8084 v 0 c 0,-3.757275 3.123432,-6.80315 6.976379,-6.80315 v 0 c 1.850247,0 3.624722,0.716759 4.933041,1.992596 1.308327,1.27584 2.043335,3.006248 2.043335,4.810554 v 0 c 0,3.757275 -3.123428,6.80315 -6.976376,6.80315 v 0 c -3.852947,0 -6.976379,-3.045875 -6.976379,-6.80315 z"
       fill-rule="evenodd"
       id="path15" />
    <path
       stroke="#000000"
       stroke-width="1"
       stroke-linejoin="round"
       stroke-linecap="butt"
       d="m 55.559055,39.8084 v 0 c 0,-3.757275 3.123432,-6.80315 6.976379,-6.80315 v 0 c 1.850247,0 3.624722,0.716759 4.933041,1.992596 1.308327,1.27584 2.043335,3.006248 2.043335,4.810554 v 0 c 0,3.757275 -3.123428,6.80315 -6.976376,6.80315 v 0 c -3.852947,0 -6.976379,-3.045875 -6.976379,-6.80315 z"
       fill-rule="evenodd"
       id="path17" />
  </g>
</svg>
