<svg version="1.1" viewBox="0.0 0.0 101.11286089238845 100.0" fill="none" stroke="none" stroke-linecap="square" stroke-miterlimit="10" xmlns:xlink="http://www.w3.org/1999/xlink" xmlns="http://www.w3.org/2000/svg"><clipPath id="p.0"><path d="m0 0l101.11286 0l0 100.0l-101.11286 0l0 -100.0z" clip-rule="nonzero"/></clipPath><g clip-path="url(#p.0)"><path fill="#000000" fill-opacity="0.0" d="m0 0l101.11286 0l0 100.0l-101.11286 0z" fill-rule="evenodd"/><path fill="#000000" d="m51.852196 20.286158l14.588165 -19.977758l-1.1616135 26.580265l15.263222 -11.985735l-7.131897 15.459528l22.881683 0.51991844l-20.229683 12.685095l5.6327515 8.686783l-8.284752 4.6930695l10.945511 15.284687l-18.572739 -5.8985443l1.3238068 13.895172l-12.107128 -6.6025085l-2.4898071 13.375252l-7.6272316 -6.772743l-5.1374207 10.775658l-5.1418037 -7.3018646l-11.440842 15.988647l-0.49094772 -15.459526l-15.429794 -1.9094391l8.964184 -11.295578l-14.596936 -11.470417l17.248932 -5.9123497l-12.111512 -15.284687l18.41055 -2.0842743l-3.813614 -19.287601l17.744267 12.685093l5.1374207 -20.681719z" fill-rule="evenodd"/><path stroke="#000000" stroke-width="1.0" stroke-linejoin="round" stroke-linecap="butt" d="m51.852196 20.286158l14.588165 -19.977758l-1.1616135 26.580265l15.263222 -11.985735l-7.131897 15.459528l22.881683 0.51991844l-20.229683 12.685095l5.6327515 8.686783l-8.284752 4.6930695l10.945511 15.284687l-18.572739 -5.8985443l1.3238068 13.895172l-12.107128 -6.6025085l-2.4898071 13.375252l-7.6272316 -6.772743l-5.1374207 10.775658l-5.1418037 -7.3018646l-11.440842 15.988647l-0.49094772 -15.459526l-15.429794 -1.9094391l8.964184 -11.295578l-14.596936 -11.470417l17.248932 -5.9123497l-12.111512 -15.284687l18.41055 -2.0842743l-3.813614 -19.287601l17.744267 12.685093l5.1374207 -20.681719z" fill-rule="evenodd"/><path fill="#ffffff" d="m36.83727 39.8084l0 0c0 -3.7572746 3.1234322 -6.80315 6.9763794 -6.80315l0 0c1.8502502 0 3.6247177 0.7167587 4.9330444 1.9925957c1.3083229 1.2758408 2.043335 3.0062485 2.043335 4.8105545l0 0c0 3.7572746 -3.1234322 6.80315 -6.9763794 6.80315l0 0c-3.8529472 0 -6.9763794 -3.0458755 -6.9763794 -6.80315z" fill-rule="evenodd"/><path stroke="#000000" stroke-width="1.0" stroke-linejoin="round" stroke-linecap="butt" d="m36.83727 39.8084l0 0c0 -3.7572746 3.1234322 -6.80315 6.9763794 -6.80315l0 0c1.8502502 0 3.6247177 0.7167587 4.9330444 1.9925957c1.3083229 1.2758408 2.043335 3.0062485 2.043335 4.8105545l0 0c0 3.7572746 -3.1234322 6.80315 -6.9763794 6.80315l0 0c-3.8529472 0 -6.9763794 -3.0458755 -6.9763794 -6.80315z" fill-rule="evenodd"/><path fill="#ffffff" d="m55.559055 39.8084l0 0c0 -3.7572746 3.1234322 -6.80315 6.9763794 -6.80315l0 0c1.8502464 0 3.6247215 0.7167587 4.9330406 1.9925957c1.3083267 1.2758408 2.043335 3.0062485 2.043335 4.8105545l0 0c0 3.7572746 -3.1234283 6.80315 -6.9763756 6.80315l0 0c-3.8529472 0 -6.9763794 -3.0458755 -6.9763794 -6.80315z" fill-rule="evenodd"/><path stroke="#000000" stroke-width="1.0" stroke-linejoin="round" stroke-linecap="butt" d="m55.559055 39.8084l0 0c0 -3.7572746 3.1234322 -6.80315 6.9763794 -6.80315l0 0c1.8502464 0 3.6247215 0.7167587 4.9330406 1.9925957c1.3083267 1.2758408 2.043335 3.0062485 2.043335 4.8105545l0 0c0 3.7572746 -3.1234283 6.80315 -6.9763756 6.80315l0 0c-3.8529472 0 -6.9763794 -3.0458755 -6.9763794 -6.80315z" fill-rule="evenodd"/></g></svg>