<svg version="1.1" viewBox="0.0 0.0 153.83202099737534 100.37270341207349" fill="none" stroke="none" stroke-linecap="square" stroke-miterlimit="10" xmlns:xlink="http://www.w3.org/1999/xlink" xmlns="http://www.w3.org/2000/svg"><clipPath id="p.0"><path d="m0 0l153.83202 0l0 100.3727l-153.83202 0l0 -100.3727z" clip-rule="nonzero"/></clipPath><g clip-path="url(#p.0)"><path fill="#000000" fill-opacity="0.0" d="m0 0l153.83202 0l0 100.3727l-153.83202 0z" fill-rule="evenodd"/><path fill="#a61c00" d="m1.3311893 36.600544l20.187948 -22.355946l34.962685 -12.908642l40.375896 0l34.962685 12.908642l20.187958 22.355946l0 25.817284l-20.187958 22.355946l-34.962685 12.908638l-40.375896 0l-34.962685 -12.908638l-20.187948 -22.355946z" fill-rule="evenodd"/><path stroke="#a61c00" stroke-width="1.0" stroke-linejoin="round" stroke-linecap="butt" d="m1.3311893 36.600544l20.187948 -22.355946l34.962685 -12.908642l40.375896 0l34.962685 12.908642l20.187958 22.355946l0 25.817284l-20.187958 22.355946l-34.962685 12.908638l-40.375896 0l-34.962685 -12.908638l-20.187948 -22.355946z" fill-rule="evenodd"/><path fill="#a61c00" d="m0.80052495 66.60627l0 0c0 -18.447182 34.005207 -33.401577 75.95276 -33.401577l0 0c41.947548 0 75.95276 14.954395 75.95276 33.401577l0 0c0 18.447182 -34.00521 33.401573 -75.95276 33.401573l0 0c-41.947548 0 -75.95276 -14.9543915 -75.95276 -33.401573z" fill-rule="evenodd"/><path stroke="#a61c00" stroke-width="1.0" stroke-linejoin="round" stroke-linecap="butt" d="m0.80052495 66.60627l0 0c0 -18.447182 34.005207 -33.401577 75.95276 -33.401577l0 0c41.947548 0 75.95276 14.954395 75.95276 33.401577l0 0c0 18.447182 -34.00521 33.401573 -75.95276 33.401573l0 0c-41.947548 0 -75.95276 -14.9543915 -75.95276 -33.401573z" fill-rule="evenodd"/><path fill="#ffffff" d="m50.902187 37.271404l0 0c0 -9.245335 5.577053 -16.740158 12.456696 -16.740158l0 0c3.3037224 0 6.472126 1.763691 8.808208 4.903078c2.3360825 3.139389 3.6484833 7.397314 3.6484833 11.83708l0 0c0 9.245335 -5.5770493 16.740158 -12.456692 16.740158l0 0c-6.8796425 0 -12.456696 -7.4948235 -12.456696 -16.740158z" fill-rule="evenodd"/><path stroke="#000000" stroke-width="1.0" stroke-linejoin="round" stroke-linecap="butt" d="m50.902187 37.271404l0 0c0 -9.245335 5.577053 -16.740158 12.456696 -16.740158l0 0c3.3037224 0 6.472126 1.763691 8.808208 4.903078c2.3360825 3.139389 3.6484833 7.397314 3.6484833 11.83708l0 0c0 9.245335 -5.5770493 16.740158 -12.456692 16.740158l0 0c-6.8796425 0 -12.456696 -7.4948235 -12.456696 -16.740158z" fill-rule="evenodd"/><path fill="#ffffff" d="m95.33334 37.271404l0 0c0 -9.245335 5.5770493 -16.740158 12.456688 -16.740158l0 0c3.3037262 0 6.47213 1.763691 8.808212 4.903078c2.3360825 3.139389 3.6484833 7.397314 3.6484833 11.83708l0 0c0 9.245335 -5.5770493 16.740158 -12.456696 16.740158l0 0c-6.8796387 0 -12.456688 -7.4948235 -12.456688 -16.740158z" fill-rule="evenodd"/><path stroke="#000000" stroke-width="1.0" stroke-linejoin="round" stroke-linecap="butt" d="m95.33334 37.271404l0 0c0 -9.245335 5.5770493 -16.740158 12.456688 -16.740158l0 0c3.3037262 0 6.47213 1.763691 8.808212 4.903078c2.3360825 3.139389 3.6484833 7.397314 3.6484833 11.83708l0 0c0 9.245335 -5.5770493 16.740158 -12.456696 16.740158l0 0c-6.8796387 0 -12.456688 -7.4948235 -12.456688 -16.740158z" fill-rule="evenodd"/></g></svg>